<?xml version="1.0" encoding="UTF-8"?>
<svg id="Camada_1" data-name="Camada 1" xmlns="http://www.w3.org/2000/svg" viewBox="0 0 2107.68 1420.78">
  <defs>
    <style>
      .cls-1 {
        fill: #111;
      }

      .cls-1, .cls-2 {
        stroke-width: 0px;
      }

      .cls-2 {
        fill: #111;
      }
    </style>
  </defs>
  <path class="cls-2" d="M1688.83,595.71c14.84.34,17.6,3.09,16.82-13.7,7.48-49.65,101.59-570.43,101.59-570.43,0,0-67.08,567.75-68.06,577.18-.64,6.14-.04,6.76,6.22,7.02,10.75.45,12.96-1.04,13.38-11.76,1.55-23.04,99.7-572.49,99.7-572.49,0,0-67.61,574.93-65.43,583.42,16.22,1.66,16.33,3.31,18.27-13.48,6.78-44.72,95.7-569.93,95.7-569.93,0,0-63.16,571.95-62.78,583.73.53.66,2.24.55,3.83.48,4.29-.21,9.31,1.63,12.7-.9,3.71-2.76,1.39-8.11,2.18-12.21,7.42-34.29,96.48-568.8,96.48-568.8,0,0-55.72,509.7-62.81,574.64-.76,7.11-.54,7.15,6.6,7.3,4.6-.34,11.85,1.9,11.18-5.23-.15-13.99,97.74-576.16,97.74-576.16,0,0-65.29,569.87-63.75,580.54,11.44,2.11,13.43,1.57,14.28-10.61,3.82-34.17,98.48-570.29,98.48-570.29,0,0-62.08,553.95-67.78,580.65,4,2.58,9.29.15,13.87,1.87,1.63.61,2.84-1.23,2.8-3.18,4.52-48.82,97.64-579.36,97.64-579.36,0,0-66.81,553.51-69.48,584.17-.3,8.37-1.37,17.12-4.42,25.3-4.72,27.09-12.69,53.65-17.13,80.86-.86,6.39-3.81,7.61-9.1,7.43-114.9.09-357.27.1-363.57.09-7.37,0-9.65-.18-11.31,8.46-5.31,27.65-10.02,47.89-15.61,73.76-1.53,7.08,10.2,5.19,15.12,5.07,17.63-.42,246.78.93,346.94-.84,6.44-.2,7.64,1.19,6.38,7.07-6.18,28.83-11.98,57.37-17.2,86.76-.73,4.13-4.21,7.3-9.04,7.24-13.48-.4-294.11-3.98-352.49-2.5-5.73.15-8.12,1.96-8.63,4.18-3.29,14.46-16.14,76.93-17.02,91.23,12.36,3.76,347.72.8,385.69-.67h0c-3.79,24.64-18.13,99.35-20.21,108.87-1.21,5.54-2.44,7.3-8.26,6.99-81.06-.6-162.27,2.31-243.3,3.28-112.01.56-336.61,4.34-336.77,4.34-7.79,0-17.94.75-16.04-9.34,2.66-14.18,196.99-1094.23,196.99-1094.23,0,0-59.31,553.39-64.17,578.11-.43,2.55-1.27,5.39,1.73,7.13,1.41.82,13.25.49,13.63-.47.85-2.13,1.81-4.4,1.87-6.63.28-10.69,104.64-578.14,104.64-578.14,0,0-56.5,462.81-68.55,584.47h0c1.56.48,2.48,1.02,3.4,1.01,12.91-.22,11.95,2.72,14.48-12.87,8.23-41.25,98.26-572.48,98.26-572.48h0s-53.02,484.89-61.85,577.93c-.14,2.57-2.28,6.95,3.51,7.56,8.71.92,11.03.04,12.46-5.85,18.2-109.97,98.53-579.1,98.53-579.1,0,0-57.73,557.68-63.37,583.35h0c.98,1.39,2.09,1.45,2.93,1.04,4.87-2.42,11.49,1.89,15.03-2.56,3.04-3.8,99.26-582.48,99.26-582.48,0,0-57.47,541.79-62.53,581.59-.21.89-1.19,1.88.34,2.54v.03Z"/>
  <path class="cls-2" d="M1226.14,1419.13c-4.45-16.25,64.17-671.22,62.94-678.43-6.06,3.39-12.71,7.96-19.22,11.77-1.4.68-85.73,651.4-93.1,667.22-.32-16.23,57.68-642.76,59.83-649.25.8-2.41-1.36-3.68-3.65-3.11-2.53.63-4.88,1.96-7.39,2.74-10.7,3.3-11.36,4.64-12.8,15.4-2.98,22.24-88.63,634.28-88.63,634.28,0,0,57.39-624.69,60.41-635.02.74-2.52-.94-4-3.28-3.43-3.51.86-6.84,1.22-10.54,1.08-4.88-.19-8.67,4.36-9.35,9.63-2.02,15.61-87.4,627.7-87.4,627.7,0,0,55.73-623.8,58.06-631.36-6.14-2.14-10.58,1.53-15.51,1.08-2.67-.24-3.42,2.39-3.66,4.98-.9,9.54-90.01,626.37-90.01,626.37,0,0,59.74-615.41,60.59-630.53-5.89-1.94-11.61,2.24-17.44-.08-2.47-.98-3.91,2.67-4.9,5.28-3.25,8.55-90.13,624.93-90.13,624.93,0,0,57.8-617.17,59.09-627.03.27-2.06-.9-3.32-2.77-3.23-4.57.21-9.44-.12-13.57,1.42-3.32,1.23-3.54,5.86-4.01,9.33-1.46,10.8-86.98,619.68-86.98,619.68,0,0,56.03-618.79,56.78-626.6.08-.82-.63-2.41-1.13-2.48-4.89-.69-9.81-1.28-14.75-1.59-2.1-.13-2.19,1.85-2.68,3.47-1.56,5.16-89.75,625.13-89.75,625.13,0,0,51.2-618.35,53.51-626.86.79-2.9-1.15-3.9-3.8-4.58-5.36-1.39-10.69-2.7-16.74-2.43-2.21,12.3-84.73,634.56-84.73,634.56,0,0,52.56-618.49,55.55-635.47.61-3.48-.59-5-3.59-5.77-5.73-1.47-11.48-2.89-17.8-4.48-1.04,17.8-84.51,645.06-84.51,645.06,0,0,54.75-644.55,54.92-650.24.13-4.4-.87-6.67-4.77-8.39-3.61-1.59-7.05-3.5-11.21-4.28-3.36,14.11-89.42,664.59-89.42,664.59,0,0,58.88-674.3,59.67-686.36.26-3.96-1.97-7.11-4.06-9.88-2.55-3.38-4.63-6.96-6.68-10.61-2.88-2.46-2.92,1.07-4.19,1.99-.28,17.2-89.75,703.27-89.75,703.27,0,0,101.94-1003.6,106.42-1019.93,2.81-13.88,10.1-30.67,17.01-45.16,8.24-17.26,17.69-34.1,31.52-47.69,11.73-11.54,22.44-24.3,37.72-31.8,9.42-4.62,17.69-11.54,27.56-15.28,11.07-4.2,23.3-8.03,33.75-11.47,4.9-1.44,9.78-3.24,14.63-4.31,13.55-3.98,24.16-5.89,38.9-7.82,24.88-3.44,46.58-3.67,69.69-4.99,24.42-1.39,48.95-.49,73.43-.58,21.22-.08,105.1,3.08,118.52,5.96,21.75,4.67,43.88,7.51,65.27,14.16,18.16,5.64,34.9,13.98,49.34,25.89,17,14.03,27.94,32.29,34.15,53.94,9.67,43.42,3.24,94.46.98,107.71-.4,2.32-2,3.99-4.78,3.96-1.51-.02-174.43-1.27-188.04-1.35-6.72-.04-8.66-1.97-6.44-8.26,2.41-6.82,2.41-13.63,2.24-20.52.43-30.36-32.23-47.45-63.44-48.25-19.76-.42-79.53,2.34-89.64,4.05-9.49,1.6-17.31,5.85-25.36,10.39-16.46,9.26-22.49,25.5-27.95,41.83-5.76,17.22-27.89,186.39-27.73,193.7.27,12.36,4.6,23.03,13.17,32.22,14.82,15.13,45.49,16.28,54.86,16.34,14.84.21,29.2.3,43.79,0,18.24-.7,36.15-4.37,53.24-10.68,20.3-7.49,33.03-22.48,38.51-43.38,2.42-9.23,5.47-18.31,6.69-27.84.49-3.84,2.63-5.78,6.69-5.77,8.28.02,169.25-.76,192.34-1.16,3.54-.06,3.7,1.01,3.51,3.89-3.98,38.16-16.61,71.48-23,83.59-5.56,10.55-14.18,28.97-21.2,38.61-2.75,3.78-102.31,725.88-103.78,720.52h-.02Z"/>
  <g>
    <path class="cls-2" d="M651.99,644.84c-.25,1.41-2.71,2.83-4.08,1.51-8.64-8.29-7.46-10.14-6.91-17.76C642.31,610.49,711.87,0,711.87,0c0,0-101.56,601.47-104.31,617.74-.31,1.85-.55,3.64-7.83,1.21-5.77-2.67-4.45-1.29-4.38-6.9.14-10.51,63.68-610.83,63.68-610.83,0,0-90.87,563.28-98.27,607.41-.06.34-.34.6-.68.63-3.98.31-7.22-.72-10.69-1.35-3.38-.73-4.48-1.68-3.86-5.17.87-4.88,62.32-602.44,62.32-602.44,0,0-96.01,586.22-97.72,597.31-.4,2.58-.09,6.05-3.9,5.66-4.56-.46-9.38,1.16-13.64-1.4-.54-.33-.73-1.97-.47-2.81,2.67-8.7,62.74-599.06,62.74-599.06,0,0-93.39,569.22-97.61,593.84-.86,5.03-1.56,6.24-11.88,5.35-5.59-.73-5.96-3.65-5.28-7.65,1.85-11.01,61.05-589.6,61.05-589.6,0,0-93.43,565.51-97.9,592.41-.88,4.2.4,4.18-10.62,3.72-5.54-.3-6.25-1.2-6.11-2.44,2.23-13.25,61.17-593.94,61.17-593.94,0,0-94.8,579.99-96.43,590.06-.53,3.27-5.58,8.62-10.31,8.8-11.43.45-8.87-3.83-7.18-16.07.44-2.13,61.31-584.19,61.31-584.19,0,0-96.11,580.42-97.56,591.25-.53,3.96-2.43,6-6.57,5.66-1.59-.13-3.2-.2-4.79-.06-4.46.39-6.56-.29-6.63-5.85-.08-6.09,61.53-589.58,61.53-589.58,0,0-96.3,577-97.98,587.11-1.29,7.2.4,7.17-9.84,7.18-7.05-.11-7.36-.32-7.07-3.92,1.49-18.89,59.92-590.36,59.92-590.36,0,0-93.16,562.02-96.48,583.48-1.68,10.84-1.85,11.79-12.35,11.83-4.09-.08-6.2-2.24-6.31-6.49C170.61,577.61,231.64.47,231.64.47c0,0-93.54,569.12-96.11,585.74-1.38,8.87-5.13,10.29-12.65,9.64-5.82-.88-7.14-.68-6.36-9.64-.04-1.33,60.59-583.71,60.59-583.71,0,0-94.32,567.88-96.93,583.2C77.75,599.98,1.09,1099.96.18,1116.07c-.41,7.3-.68,7.35,6.24,7.5,22.28.48,44.56-.46,66.85-.25,32.54.31,65.09-1.12,97.64-1.71,10.28-.18,20.56-.23,30.83.06,4.96.14,6.88-1.46,7.79-6.61,3.19-19.63,6.27-37.09,8.63-55.79,3.47-27.5,8.04-54.85,11.7-82.32.73-5.46,2.52-7.57,7.96-7.37,7.9.29,15.8.58,23.7.49,33.52-.35,67.03-1.07,100.55-.54,8.36.13,16.43,1.94,24.65,2.83,6.19.67,12.27,2.71,17.9,5.53,7.19,3.59,14.03,8.76,16.12,16.32,2.98,10.76,3.55,22.07,1.78,33.46-1.37,8.8-12.75,76.69-13.97,91.47,4.09.15,167.78-1.7,176.83-1.05,8.89.63,17.56-.55,26.33-.47,2.9.03,3.74-1.04,4.26-3.97,4.52-25.65,13.66-81.63,13.89-83.95.78-7.88,1.24-15.8,2.38-23.63,1.95-13.29,2-26.54-2.66-39.15-4.34-11.77-9.14-23.95-19.81-31.46-9.63-6.77-19.9-13.25-30.81-17.44-15.32-5.89-52.83-13.93-55.36-14.7-.49-.17-.86-.16-.86-.48.01-.69,10.54-2.48,15.29-3.82,19.01-5.33,38.04-10.22,56.3-18.28,17-7.5,31.44-17.53,43.7-31.28,12.81-14.37,21.24-30.68,26.08-49.42,4.73-18.31,10.85-75.39,13.38-94.57,1.62-12.86,76.55-669.24,80.6-702.65-4.49,30.89-97.17,591.18-106.12,642.01h.02ZM459.2,791.02c-1.15,5.45-2.01,10.96-3.25,16.39-4.68,20.41-18.29,32.52-37.84,37.05-20.35,4.72-39.23,4.74-62.22,4.9-7.74.14-89.35.84-98.19.34-6.31-.35-6.8-.33-6.12-6.91,1.28-12.42,16.43-110.95,17.66-121.02.58-4.74,3.2-5.33,6.64-5.2,18.22.7,140.76,2.05,149.54,3.26,11.22,1.54,21.41,5.58,29.3,14.2,3.66,4,6,8.53,6.71,14.01,1.88,14.48.78,28.76-2.23,42.98h0Z"/>
    <path class="cls-1" d="M758.11,2.83c.11-.77.17-1.23.17-1.32,0-.05-.06.4-.17,1.32Z"/>
  </g>
</svg>